<svg width="125" height="115" viewBox="0 0 125 115" fill="none" xmlns="http://www.w3.org/2000/svg">
<ellipse cx="60" cy="57.5" rx="60" ry="57.5" fill="#2C3048" fill-opacity="0.8"/>
<path d="M119 57.5C119 88.6644 92.6253 114 60 114C27.3747 114 1 88.6644 1 57.5C1 26.3356 27.3747 1 60 1C92.6253 1 119 26.3356 119 57.5Z" stroke="#F2A716" stroke-opacity="0.35" stroke-width="2"/>
<path d="M15.264 78.984C14.4533 78.984 14.048 78.152 14.048 76.488C14.048 75.6773 14.4107 74.3973 15.136 72.648C15.8613 70.856 16.8213 68.7867 18.016 66.44C19.2533 64.0507 20.64 61.576 22.176 59.016C23.712 56.4133 25.2907 53.8747 26.912 51.4C28.5333 48.9253 30.0907 46.6853 31.584 44.68C33.0773 42.632 34.4213 41.0107 35.616 39.816C36.8107 38.6213 37.728 38.024 38.368 38.024C38.6667 38.024 39.072 38.1733 39.584 38.472C40.096 38.7707 40.5653 39.112 40.992 39.496C41.4187 39.88 41.632 40.2213 41.632 40.52C41.632 41.288 41.5253 42.12 41.312 43.016C41.1413 43.8693 40.992 44.68 40.864 45.448C40.7787 45.8747 40.608 46.8347 40.352 48.328C40.096 49.7787 39.84 51.464 39.584 53.384C39.3707 55.2613 39.264 57.0533 39.264 58.76C39.264 60.3813 39.4347 61.768 39.776 62.92C40.1173 64.072 40.736 64.648 41.632 64.648C42.784 64.648 44.192 64.1147 45.856 63.048C47.52 61.9813 49.2907 60.616 51.168 58.952C53.088 57.2453 54.9867 55.4533 56.864 53.576C58.784 51.656 60.5333 49.864 62.112 48.2C63.7333 46.4933 65.0773 45.1067 66.144 44.04C67.2533 42.9733 67.9147 42.44 68.128 42.44C68.256 42.44 68.32 42.5253 68.32 42.696C68.32 43.0373 68.1707 43.464 67.872 43.976C67.36 44.9573 66.5493 46.1947 65.44 47.688C64.3733 49.1387 63.1147 50.7173 61.664 52.424C60.2133 54.1307 58.656 55.816 56.992 57.48C55.3707 59.144 53.728 60.6587 52.064 62.024C50.4 63.3893 48.8 64.4987 47.264 65.352C45.728 66.1627 44.3413 66.568 43.104 66.568C41.1413 66.568 39.648 66.0347 38.624 64.968C37.6 63.8587 36.896 62.4507 36.512 60.744C36.128 58.9947 35.936 57.1813 35.936 55.304C35.936 53.128 36.0427 51.2507 36.256 49.672C36.4693 48.0507 36.7253 46.216 37.024 44.168C35.104 46.1733 33.0347 48.5413 30.816 51.272C28.64 53.96 26.528 56.84 24.48 59.912C22.4747 62.984 20.7253 66.0773 19.232 69.192C17.7387 72.264 16.736 75.1867 16.224 77.96C16.1813 78.216 16.096 78.4507 15.968 78.664C15.84 78.8773 15.6053 78.984 15.264 78.984ZM60.832 76.936C59.8933 76.936 59.2747 76.488 58.976 75.592C58.72 74.696 58.592 73.8853 58.592 73.16C58.592 72.3493 58.784 71.1333 59.168 69.512C59.5947 67.848 60.1493 65.9493 60.832 63.816C61.5147 61.6827 62.2827 59.464 63.136 57.16C64.032 54.8133 64.9707 52.5307 65.952 50.312C66.976 48.0933 67.9787 46.1093 68.96 44.36C69.9413 42.568 70.88 41.1387 71.776 40.072C72.672 39.0053 73.4613 38.472 74.144 38.472C74.4853 38.472 75.0187 38.6427 75.744 38.984C76.4693 39.3253 76.832 39.7307 76.832 40.2C76.832 40.328 76.448 40.9893 75.68 42.184C74.912 43.336 73.9093 44.8507 72.672 46.728C71.4773 48.6053 70.1973 50.696 68.832 53C67.4667 55.2613 66.1653 57.608 64.928 60.04C63.7333 62.472 62.752 64.8187 61.984 67.08C61.216 69.2987 60.832 71.2827 60.832 73.032V73.544C60.832 73.8427 60.8747 74.1413 60.96 74.44C61.0453 74.696 61.2373 74.824 61.536 74.824C62.048 74.824 62.304 75.08 62.304 75.592C62.304 75.8907 62.176 76.1893 61.92 76.488C61.664 76.7867 61.3013 76.936 60.832 76.936ZM79.348 78.408C77.3 78.408 75.4013 78.0667 73.652 77.384C71.9027 76.744 70.4733 75.72 69.364 74.312C68.2547 72.904 67.5933 71.0907 67.38 68.872C67.2093 66.952 67.508 64.8827 68.276 62.664C69.0867 60.4027 70.2387 58.1413 71.732 55.88C73.268 53.6187 75.0173 51.464 76.98 49.416C78.9427 47.368 81.012 45.5333 83.188 43.912C85.4067 42.2907 87.604 41.0107 89.78 40.072C91.956 39.1333 94.004 38.664 95.924 38.664C97.46 38.664 98.8253 39.1547 100.02 40.136C101.215 41.1173 101.812 42.44 101.812 44.104C101.812 45.4267 101.385 46.536 100.532 47.432C99.6787 48.2853 98.5907 48.712 97.268 48.712C97.2253 48.712 97.012 48.6907 96.628 48.648C96.244 48.6053 96.0307 48.456 95.988 48.2C96.2013 47.688 96.5853 47.24 97.14 46.856C97.7373 46.472 98.2707 45.96 98.74 45.32C99.2093 44.6373 99.38 43.6347 99.252 42.312C99.2093 41.544 98.8893 41.0107 98.292 40.712C97.7373 40.3707 97.0973 40.2 96.372 40.2C94.58 40.2 92.6813 40.712 90.676 41.736C88.6707 42.7173 86.6867 44.0827 84.724 45.832C82.804 47.5387 80.9693 49.4587 79.22 51.592C77.5133 53.7253 75.9987 55.944 74.676 58.248C73.396 60.552 72.4147 62.8133 71.732 65.032C71.0493 67.208 70.7933 69.1707 70.964 70.92C71.1773 72.84 72.0307 74.2693 73.524 75.208C75.06 76.1467 76.7027 76.616 78.452 76.616C80.4573 76.616 82.548 76.296 84.724 75.656C86.9 74.9733 89.0333 74.12 91.124 73.096C93.2573 72.072 95.2413 71.0053 97.076 69.896C98.9107 68.7867 100.489 67.7627 101.812 66.824C103.177 65.8853 104.159 65.1813 104.756 64.712C104.799 64.6693 104.841 64.648 104.884 64.648C104.969 64.648 105.012 64.7547 105.012 64.968C105.012 65.1387 104.969 65.3307 104.884 65.544C104.841 65.7573 104.713 65.9707 104.5 66.184C103.135 67.592 101.449 69.0213 99.444 70.472C97.4813 71.88 95.348 73.1813 93.044 74.376C90.74 75.5707 88.3933 76.5307 86.004 77.256C83.6573 78.024 81.4387 78.408 79.348 78.408Z" fill="white"/>
</svg>
