<svg width="128" height="115" viewBox="0 0 128 115" fill="none" xmlns="http://www.w3.org/2000/svg">
<path d="M18.264 78.984C17.4533 78.984 17.048 78.152 17.048 76.488C17.048 75.6773 17.4107 74.3973 18.136 72.648C18.8613 70.856 19.8213 68.7867 21.016 66.44C22.2533 64.0507 23.64 61.576 25.176 59.016C26.712 56.4133 28.2907 53.8747 29.912 51.4C31.5333 48.9253 33.0907 46.6853 34.584 44.68C36.0773 42.632 37.4213 41.0107 38.616 39.816C39.8107 38.6213 40.728 38.024 41.368 38.024C41.6667 38.024 42.072 38.1733 42.584 38.472C43.096 38.7707 43.5653 39.112 43.992 39.496C44.4187 39.88 44.632 40.2213 44.632 40.52C44.632 41.288 44.5253 42.12 44.312 43.016C44.1413 43.8693 43.992 44.68 43.864 45.448C43.7787 45.8747 43.608 46.8347 43.352 48.328C43.096 49.7787 42.84 51.464 42.584 53.384C42.3707 55.2613 42.264 57.0533 42.264 58.76C42.264 60.3813 42.4347 61.768 42.776 62.92C43.1173 64.072 43.736 64.648 44.632 64.648C45.784 64.648 47.192 64.1147 48.856 63.048C50.52 61.9813 52.2907 60.616 54.168 58.952C56.088 57.2453 57.9867 55.4533 59.864 53.576C61.784 51.656 63.5333 49.864 65.112 48.2C66.7333 46.4933 68.0773 45.1067 69.144 44.04C70.2533 42.9733 70.9147 42.44 71.128 42.44C71.256 42.44 71.32 42.5253 71.32 42.696C71.32 43.0373 71.1707 43.464 70.872 43.976C70.36 44.9573 69.5493 46.1947 68.44 47.688C67.3733 49.1387 66.1147 50.7173 64.664 52.424C63.2133 54.1307 61.656 55.816 59.992 57.48C58.3707 59.144 56.728 60.6587 55.064 62.024C53.4 63.3893 51.8 64.4987 50.264 65.352C48.728 66.1627 47.3413 66.568 46.104 66.568C44.1413 66.568 42.648 66.0347 41.624 64.968C40.6 63.8587 39.896 62.4507 39.512 60.744C39.128 58.9947 38.936 57.1813 38.936 55.304C38.936 53.128 39.0427 51.2507 39.256 49.672C39.4693 48.0507 39.7253 46.216 40.024 44.168C38.104 46.1733 36.0347 48.5413 33.816 51.272C31.64 53.96 29.528 56.84 27.48 59.912C25.4747 62.984 23.7253 66.0773 22.232 69.192C20.7387 72.264 19.736 75.1867 19.224 77.96C19.1813 78.216 19.096 78.4507 18.968 78.664C18.84 78.8773 18.6053 78.984 18.264 78.984ZM63.832 76.936C62.8933 76.936 62.2747 76.488 61.976 75.592C61.72 74.696 61.592 73.8853 61.592 73.16C61.592 72.3493 61.784 71.1333 62.168 69.512C62.5947 67.848 63.1493 65.9493 63.832 63.816C64.5147 61.6827 65.2827 59.464 66.136 57.16C67.032 54.8133 67.9707 52.5307 68.952 50.312C69.976 48.0933 70.9787 46.1093 71.96 44.36C72.9413 42.568 73.88 41.1387 74.776 40.072C75.672 39.0053 76.4613 38.472 77.144 38.472C77.4853 38.472 78.0187 38.6427 78.744 38.984C79.4693 39.3253 79.832 39.7307 79.832 40.2C79.832 40.328 79.448 40.9893 78.68 42.184C77.912 43.336 76.9093 44.8507 75.672 46.728C74.4773 48.6053 73.1973 50.696 71.832 53C70.4667 55.2613 69.1653 57.608 67.928 60.04C66.7333 62.472 65.752 64.8187 64.984 67.08C64.216 69.2987 63.832 71.2827 63.832 73.032V73.544C63.832 73.8427 63.8747 74.1413 63.96 74.44C64.0453 74.696 64.2373 74.824 64.536 74.824C65.048 74.824 65.304 75.08 65.304 75.592C65.304 75.8907 65.176 76.1893 64.92 76.488C64.664 76.7867 64.3013 76.936 63.832 76.936ZM82.348 78.408C80.3 78.408 78.4013 78.0667 76.652 77.384C74.9027 76.744 73.4733 75.72 72.364 74.312C71.2547 72.904 70.5933 71.0907 70.38 68.872C70.2093 66.952 70.508 64.8827 71.276 62.664C72.0867 60.4027 73.2387 58.1413 74.732 55.88C76.268 53.6187 78.0173 51.464 79.98 49.416C81.9427 47.368 84.012 45.5333 86.188 43.912C88.4067 42.2907 90.604 41.0107 92.78 40.072C94.956 39.1333 97.004 38.664 98.924 38.664C100.46 38.664 101.825 39.1547 103.02 40.136C104.215 41.1173 104.812 42.44 104.812 44.104C104.812 45.4267 104.385 46.536 103.532 47.432C102.679 48.2853 101.591 48.712 100.268 48.712C100.225 48.712 100.012 48.6907 99.628 48.648C99.244 48.6053 99.0307 48.456 98.988 48.2C99.2013 47.688 99.5853 47.24 100.14 46.856C100.737 46.472 101.271 45.96 101.74 45.32C102.209 44.6373 102.38 43.6347 102.252 42.312C102.209 41.544 101.889 41.0107 101.292 40.712C100.737 40.3707 100.097 40.2 99.372 40.2C97.58 40.2 95.6813 40.712 93.676 41.736C91.6707 42.7173 89.6867 44.0827 87.724 45.832C85.804 47.5387 83.9693 49.4587 82.22 51.592C80.5133 53.7253 78.9987 55.944 77.676 58.248C76.396 60.552 75.4147 62.8133 74.732 65.032C74.0493 67.208 73.7933 69.1707 73.964 70.92C74.1773 72.84 75.0307 74.2693 76.524 75.208C78.06 76.1467 79.7027 76.616 81.452 76.616C83.4573 76.616 85.548 76.296 87.724 75.656C89.9 74.9733 92.0333 74.12 94.124 73.096C96.2573 72.072 98.2413 71.0053 100.076 69.896C101.911 68.7867 103.489 67.7627 104.812 66.824C106.177 65.8853 107.159 65.1813 107.756 64.712C107.799 64.6693 107.841 64.648 107.884 64.648C107.969 64.648 108.012 64.7547 108.012 64.968C108.012 65.1387 107.969 65.3307 107.884 65.544C107.841 65.7573 107.713 65.9707 107.5 66.184C106.135 67.592 104.449 69.0213 102.444 70.472C100.481 71.88 98.348 73.1813 96.044 74.376C93.74 75.5707 91.3933 76.5307 89.004 77.256C86.6573 78.024 84.4387 78.408 82.348 78.408Z" fill="white"/>
<ellipse cx="60" cy="57.5" rx="60" ry="57.5" fill="#D9D9D9" fill-opacity="0.11"/>
<path d="M119.5 57.5C119.5 88.9604 92.8812 114.5 60 114.5C27.1188 114.5 0.5 88.9604 0.5 57.5C0.5 26.0396 27.1188 0.5 60 0.5C92.8812 0.5 119.5 26.0396 119.5 57.5Z" stroke="#F2A716" stroke-opacity="0.35"/>
</svg>
